<?xml version="1.0" standalone="no"?><!DOCTYPE svg PUBLIC "-//W3C//DTD SVG 1.1//EN" "http://www.w3.org/Graphics/SVG/1.1/DTD/svg11.dtd"><svg  viewBox="0 0 1024 1024" version="1.1" xmlns="http://www.w3.org/2000/svg"  xmlns:xlink="http://www.w3.org/1999/xlink" width="200" height="200"><path d="M512.423976 1023.99488a498.014073 498.014073 0 0 1-198.002511-40.701227A520.860516 520.860516 0 0 1 41.416064 710.416243 500.445907 500.445907 0 0 1 0.714836 512.413732a388.389541 388.389541 0 0 1 34.749633-185.715348 42.109131 42.109131 0 0 1 55.93219-15.102971c33.917689 14.079041 16.638866 54.204307 16.638866 54.204307a297.83571 297.83571 0 0 0-26.878169 146.550016A431.138629 431.138629 0 1 0 512.487972 81.339099a331.177439 331.177439 0 0 0-152.94958 26.622186l-6.847534 3.583756a42.045136 42.045136 0 0 1-33.277733-72.95503l7.167512-3.007795A388.645524 388.645524 0 0 1 512.423976 0.704592a498.014073 498.014073 0 0 1 197.938516 40.701227 520.860516 520.860516 0 0 1 273.005401 272.941406 502.813746 502.813746 0 0 1 0 395.941027 520.860516 520.860516 0 0 1-273.005401 272.941405A498.014073 498.014073 0 0 1 512.423976 1023.99488z" ></path><path d="M613.409097 754.63723a38.525375 38.525375 0 0 1-40.317254-40.189262v-336.617068a40.317253 40.317253 0 1 1 80.570511 0v336.617068a38.525375 38.525375 0 0 1-40.253257 40.189262zM411.310865 754.63723a38.525375 38.525375 0 0 1-40.189263-40.189262v-336.617068a40.317253 40.317253 0 1 1 80.44252 0v336.617068a38.525375 38.525375 0 0 1-40.189262 40.189262zM175.678917 283.181348A110.136497 110.136497 0 1 1 250.93779 250.927546c-19.838648 20.222622-46.908804 31.805833-75.322869 32.253802z" ></path></svg>